<svg xmlns="http://www.w3.org/2000/svg" width="780.5" height="780.2" viewBox="0 0 206.5 206.4">
  <path d="M13 205l-2-2-1-2 2 1 2 3v1l-1-1zm9 0v-2-2-2l-1-1-1-2a45 45 0 00-7-14l-4-4c-5 0-6 0-7 2l-2 1v-8l5 1 5-1h1l1-1 1-1h2v-1l5-2 1-1h2l1-1 1-1 2-1h1l1-1 15-2 4 1h20v-7l1-7v-1l2-1c1-1 2-2 3-1 1 0 1 0 0 0-2 0-2 0-3 2l-1 7v5l1 2a228 228 0 01-1 18l-1-12v-3H49a31 31 0 001 9l1 3v1l1 2v1a213 213 0 003 24v2H23zm9-25h-2l1 1 1-1zm-29-4v0zm-1 0v-1 1zm5 0l-1-1v1h1zm89 30l-1-1a1052 1052 0 011 1zm44-1v-4l-1-3h-2v-1a404 404 0 012-7v7h10v9h-2v-7h-5v7h-1l-1-1zm15-1l-1-9v-7l-1-2-1-2c-2-2-3-6-4-11v-4l4 4a40 40 0 014 10h19l4 6 1 2c2 3 2 5 2 11l1 4h-28zm2-10v-1-1-2c0-1-1-1-1 1a21 21 0 000 4h1v-1zm0-4v-1 1zM9 200h1-1zm-3-3l-1-1-1-1-1-1-1-1-1-1-1-1h1l1 1h1l3 3 1 2H6zm-6-34v-1h4a338 338 0 0113 2H0zm16-3a39 39 0 01-8-1h3a217 217 0 0117 0v1H16zm11-4l2-1h4a1371 1371 0 004 2H27zm-27-2v-1h4a379 379 0 0019-2h4l3-1a288 288 0 0126 0h4l-2 1-3 1H28v2h-5a204 204 0 00-18 1H0zm109-2a60 60 0 01-8-1c-3-1 0-1 16-1 14 0 15 0 14 1h-2l-7 1h-13zm30-5v-4 4zM0 149v-2h15v-3H0v-2h15v-4H0v-2h15v-7l-8 1H0v-2h15v-2H0v-13h13v-4H0v-2h15v-1-3H2l-1-1-1-1h1l1-3v-2H1l-1-1 1-1v-2-3H0l1-1h1v-5H0l1-1h1v-5H1l-1-1v-1h8v-5H2h6V59l-3-1-3 1v11l-1 1H0V44h21l-1 2h-1l-2 1v12h2v1h-2v6h3v-3a69 69 0 011-14v-1l1-2 1-1a799 799 0 0145-1v-1H23v-2H0v-2h7v-3-4H0v-2h28V9h19V6 3h-1 9l-4 1h-2l-1 13v14a60 60 0 009-1h4a839 839 0 0035-3v-2l-5 1a205 205 0 00-13 0h-3v-3l-1-13V0h2v23h19v-1h1l2-2-7-1a271 271 0 00-11 2V6h5l1-1V0h2v12l-1 3 1 3a113 113 0 0111-1h4l1-1v1h2l3-1h2l-9-1-9 1h-1v-3V0h3v14h7V0h2v13h5V0h2v13h4v-2-7l-1-4h2v7l1 6h2l2 1V0h2v15h4V0h2v15h4V0h1v16h4V0h2v18h3V0h2v23h4V0h2v30h4V0h1v4l1 5h14V8 6h-6c-8 0-10 0-3-1h9V0h2v48h5v-1V0h1l1 1 1 1 1 1 1 4v5h2v3l1 3v1h-3l-1 15v14h8v-1a275 275 0 010-16v-7h-2v2l-1 2v-3-4 1l3 1 2 1v5l1 5v10h-1l2 1h5v8l1 1h2v6l2 1h2a554 554 0 010 8v4h-1l-1 1v12l1 1h0-1v2l1 1h1a40 40 0 010 12v9h-5v2h-10c0 2-1 2-3 2h-2l12 1h5l-1 1h-24v2h-5v1c1 0 1 0 0 0h-9a270 270 0 00-11 0l1-2c0-2 0-3-1-2v-2-2l1-2 4-1V99a173 173 0 010-15h-2v3l-1-4v-4h-1a643 643 0 01-12-2h-2 16v-7-21h5v6l1 5h3a382 382 0 00-1-17h-2-1-5l-5-1v-1l-1-1h4l5 1c3 0 3 0 3-2v-2h-4a112 112 0 00-9 1v-3h-3a79 79 0 00-15 0v1l-1-1-3 1h-1-1-1l-1 1v-1h-1v1h-1c0-1 0-1 0 0h-2v1h-2-1-1v1l-1-1c0-1 0-1 0 0h-2-1v-2c0 1 0 1 0 0h-1v-1h-1l-1 1-1-1h-1l-2-2h-1-1l-1-1h-3-1-5a491 491 0 01-7 2l-2 1v1l-1 1v1l-2 1v1h1l-1 1s-1 0 0 0l-1 1v1 1h-1l-1 2v1l-1-1v1h1l-1 1v7l-1 9-1 11v2h6v-2l1-1a215 215 0 0130 0v-1l-1-1H99l-10-1h-5v-3h11a353 353 0 0122 2h2l-1 1h-2 1v1l-1 1 1 1 1 1h-1c0-1 0-1 0 0l-1 1h1l-1 1v-1h-1v0h-1-1v-1l-1-1 1-2v-1l-1-1v4l1 4h1v1h-1 12v-1l-1-2c-1-1-1-1 0 0l-2 1v1h2v0h-1v1l-1-2-1-1 1-1h0v-1h-1 1l-1-1h-1v-1c-1-1 0-1 5-1l25 1v1l1 1h-25v4h10l10 1v1l1 1 1 1h-23v6h9a116 116 0 0110 1h-16c-6 0-5 0-5-5v-3h-9v7a373 373 0 01-34-1v-7h-6v27l1 12v6h4l-1 2v8l-1 8v1-2l-1-2H49v-1h6a84 84 0 0017-1h5v-7h-8a165 165 0 00-12 0v-2h21v-3H57l-22 1-16 1-1 8v8h19v2h6a1617 1617 0 0125 0c-2 2-2 2-17 2l-14-1h-1l-9-1h-9v4H0zm19-33v-9h-4v18h4zm36 6v-4h-8v3l-1 2v-21h-1l-1 1v5l1 4H22v-6h-1v3a226 226 0 011 8v-3h23v8H21v3h34zm-41-3v-4H3v9h10zm52 5h7v-9H57v-1c0-1 0-1 0 0v10h9zm100-10v-5h1l1 1h2l1 1h3c0-1 0-1 0 0l-1 1v4h4l-1-4v-4h-12v5l1 6 1-5zm6 5v-5l-1-2-1 4 1 3h1zm-117-5v-1l-2 1a81 81 0 01-6 0l5 1h3zm130-2v-2h-7v4h7v-2zm-112-1v-2H57v-2h9v-1l-1-2v-2h-8v-2h8v-4h-6l-1-1h7v-5h-4c-4 0-3-1 1-1h3v-6h-7 4l3-1v-4h-8v35h16zm123-1l2 1 2-1h6v-4h-1v1c-1 0-1 0 0 0s1 0 0 0h-5 4v-4h-1l-1 2-6 1h-4v2l1 2a60 60 0 002 0v1h1v-1zm-171-1h-1v1l1-1zm138-1l-1-1v2h1v-1zm27-3v-3h-5v6l2 1h3v-4zm-7-4v-8h-1c0 1 0 1 0 0l-1 2 1 1-2 1h-3l1 1c0-1 0-1 0 0h2v1l1 1c-1 0 0 0 0 0l1 1-1 2v6h2zm-111 2a712 712 0 01-2-31h-1l-1-1v-1l-2 1h-1v2l1 3v30l3 1h3zm-49 0v-2h-3v-1h6v-7a576 576 0 000-13v-3h-2l-2 1v4h-5-1v-2l1-2v-1c-1 0-1 0 0 0h4l-3-1h-2v16h1v-2l1-2v-1-2-2l2-1h2v11h-2v3l-1 4h-2v4h6zm5 0h-1 1zm171-2h-1l1 1v-1zM15 99v-3H3v5h12zm40-4v-5h-4l2-1h2V79h-5v20l-1 1-1-5v-4H28v9h27v-5zm135 2v-3h-5v6h5zm-17 3v-1c1 1 1 0 0 0v-1 2zm26-2l-1-1-1 1h2zm-22-1h-1 1zm-1 0h-1 1zM16 94l-1-1h-4v-5l-1-6v7H3v5h13zm185 0v-1 1s1 0 0 0zm-5-1l2-1v-1c0-1 0-1 0 0h-8l-1 1v2l3-1h4zm-29-1v-1 1zm16-3v-2l-3 1 1 1h1v1l1-1zm19 1v-1h-1v-1c0-1 0-1 0 0v2h1zm1 0h-1 1zM49 84v-6H28v11h21zM9 86v-3H3v5h6v-2zm95 0h8v-1-4H81v5h7a241 241 0 0016 0zm85 0l-1-1h-7l1 1h7zm14-4v-9h-4c-1 1-1 1-1-1v-1h5v-1h-5l-1 1-1 4v3h1l1-1 1-1v4l-1 1v5h1l3 1h1zm-8 4v-1l-2-1h-2v1l2 1h2zm-6-3v-5h2l2-1 1-1-1-1-1 1-1 1h-1l-4 1h-3v4h-1l1 1 3 1h3v-1zm-8 0v-1l-1 1h1zM9 80v-3H3v5h6zm151 2l1-2v-3h-2l-1 5h2zm34-1h-1v1l1-1zm-12 0l-1-2v-8h-1l-4-1h-2v-1l-4-1h-7v-1h10v-2h-1a74 74 0 00-10 0l-1-1 2-1h6l-1-1-7-1-1 3v7h6l11 1h1l2 5-1 3 1 1h2zM14 78v-1c1-1 0-1-2-1h-2v3h1v1h3v-2zm85 0h13v-2h-6l-16-1h-9v1c-1 2-1 2 2 2h16zm79-1h-3l2 1 1-1zM55 74v-3h8v-1-4H26v-1l3-1a264 264 0 0128 0h5v-4h-4l-5 1c0 1 0 1 0 0v-2-1l4 1h4v-4h-4-7l-14 1 2 1 1-1h3v7h-7v-4l-1-4H22v4a156 156 0 000 8l-1 7v1h28v-2-6c1 0 2 1 1 4v6h5v-3zm-28-2v-1 1zm28-2l-1-1-1-1h-1 1l1-1h1v3zm-33-2l2-1 1 1h-3zm16-12c1 0 1 0 0 0zm26 18v-2h-7v5h7v-3zm59 2h-1l1 1v-1zm-9-1zm50 0h-2 3zm-48 0h-1 1zm8 0zm43 0zM15 71v-3h-5v6h5zm3 3h1v-2-3l-1-1h-2v3a181 181 0 001 3h1zm107-1l-1-1h-1c-1 0-1 0 0 0v1h1v1l1-1zm-11-1v-1c1 0 0 0 0 0v1c0 1 0 0 0 0zm2 0v0zm6 0h-1 1zm-54-7V48l-3-1-3 1v4l1 5h1l1 1h1-2v3l1 2v1l1 1h1-2v5h3zm128 4h-1 1zm-12-1l-1-2c0-2 0-2-2-1a77 77 0 00-5 0h2v1h4l1 1 1 2v-1zm-3 0c1-1 0-1-1-1l-2 1-1-1v1h4zm-4 0h-1 1zm18-3l-1-1v2l1-1zm8-2v-2 1l-1 4c1 1 1-1 1-3zM15 63v-3h-5v6h5zm175 1c1 0 0 0 0 0h-1l2-1 1 1c-1 0-1 0 0 0h1v-1h2v-1l-1-1h-2-3l-6-1h-5l-2 1h3l4 1 2 1h1l1 1h3zm5-5v-1h-9v2h4a32 32 0 014 0l1-1zm2 0l1-1v-1h2v-1h-1l-1-1h-1v-1 5c0 1 0 1 0 0zM14 58l-2-1-2 1v1h2l2-1zm186 0l-2-1v1h2zm-16-1v-2h-2l-1 1c0 1 0 2 2 2h1zM7 52v-6H1l-1 4v7h7zm171 5l-1-3v-2h3l1-1v-1h-10V10h-3l-1 7v22l1 16h3l4-1v1l2 2h1zM15 51v-5H9v9h6zm182 2l-1-1h-3l-3-1 1-1h-9v2l-1 1h16zM56 52v-2H21v3h35v-1zm125-6l-1-1v3l1-2zM49 41h19v-1-3H57a248 248 0 00-33 2h-1v-7H9v8l7-1h8v2h25zm-21-7v-2h-5l1 3v2h4zm20 3l2-1h-1s-1 0 0 0l9-1h15c-2-1-1-1 1-1h9v-1-1a250 250 0 00-37 2h-6-10l-1 2v1h19zm113-13V11h-4l-1 12v12h2l3 1V24zm-52 11h-1 1zm46-1v-2h-4l-1 2v1h5zm-6-2v-1l-1-1h-1l-2-1-1-1v2l1 1 1 1h3zM44 31V17l-3 1h-2v13h-2V17h-5v13l-2 1c-1 0-1 0 0 0a105 105 0 0014 0zm59-7v-1l-1 1h1zm11 1v-3h13l8 1h8v-2-3h-20v1h-11v5l2 1zm-17-1l2-1 1-1 2-1 2-1-3-1-3 3-1 1-1 1h1zm11-4h2v-1h-1l-4 1h3zm-23-3v-7h-3v7l1 1h2v-1zm37-1v-1h-4l-5 1-1 1v1l5-1h5zm-78-3v-2H32v5h12zm41-5l-1-1-2 1 1 1 2-1zM37 143v-1h12l-2 1H37zm9-4h1c1 0 0 0 0 0h-1zm-27-2c-1-1 0-1 8-1l9 1H19zm0-4v-1h39v2H19zm91 0l-5-1h3c4 0 5 0 4-1-1 0-1 0 0 0v-1h-3l6-1 7 1h-3l1 1v0l-1 1h1l1 1h-1-1-9zm94 0a843 843 0 00-56-2l1-1a3268 3268 0 0055 3zm-55-4c0 1 0 1 0 0zm49-1a559 559 0 00-48-2l1-1v-3h3l1 1v2h13a4284 4284 0 0035 1h3v2h-8zm-86-6l-6-1h1l-2-1h-2l-2-1-1-1h-2l-3-1h10l18 1a366 366 0 0114 2h-1-2l-4 1v1h-18zm28-3h0zm-45-3h0zm16-3h-1l3-1h-1v-1-1l1-1c0 1 1 2 2 1h4c0-1 0-1 0 0v1h1v-1h3l1-1h-2-1l2-2 1-1h4l-1 1-1 1c0 1 0 1 0 0l-1 1v1l-1 1c0-1 0-1 0 0h-1-1l1 1h-1l-1 1h1v1l-11-1zm5-1v0zm4 0h-1 1zm-2 0h-1 1zm3-1zm-13 2zm2-1h0zm0-2h1v1l-1-1zm16 1v-1 1zm-16-2h0zm16 0zm28-1v-1 1c1 1 0 1 0 0zm-44-1c1-1 0-1-1-1 0 1 0 1 0 0h3l-1 1v1l-1-1zm33-13l3-1 3 1h-5-1zm-2 0c1 0 0 0 0 0-1 0-1 0 0 0zm-28-16c1 0 0 0 0 0zm0-1h0zm6-1c0-1 0-1 0 0v0zm0-3v-2 2zm-2 0v-1l1 1h-1zM87 33h0zm-30-5V0h2l-1 14-1 15v-1zM0 25h3l5 1H0zm65-2c0-1 0-1 0 0v0zm-55-2v-2l1 2-1 1v-1zM24 7V4l-1-1-1-1h7v2h-1l-2-1h-1v3l-1 1zm138-5V0h4v3h-3c-1 1-1 1-1-1zM81 3V0h1v3h-1zM21 1V0v1z"/>
</svg>
